<svg width="220" height="220" viewBox="0 0 220 220" fill="none" xmlns="http://www.w3.org/2000/svg">
<circle cx="110" cy="110" r="110" fill="#241E38"/>
<path d="M57.1551 136.708C57.1551 136.708 56.3202 153.415 45.8833 153.415C35.4465 153.415 43.3785 153.415 32.1067 153.415C20.8349 153.415 20 139.572 20 139.572V83.2429C20 83.2429 20.8349 67.4898 32.1067 67.4898C43.3785 67.4898 32.9417 67.4898 44.2134 67.4898C55.4852 67.4898 56.3202 81.3334 56.3202 81.3334L56.7376 90.4126L58.825 81.3334C58.825 81.3334 61.3298 67.0217 83.8734 67.4897C106.417 67.9578 105.999 91.8447 105.999 91.8447C105.999 91.8447 105.999 120.954 105.999 138.14C105.999 155.325 90.553 153.415 90.553 153.415" stroke="#F0EEF6" stroke-width="6"/>
<path d="M124.966 117.772C124.966 117.772 114.2 122.444 114.144 131.022C114.103 137.357 118.447 143.059 118.447 143.059C118.447 143.059 123.833 151.858 131.537 152.95C139.241 154.042 147.728 149.809 147.728 149.809C147.728 149.809 170.397 138.133 188.08 128.591C205.764 119.05 203.027 97.5532 187.599 90.1897L147.666 69.7382C147.666 69.7382 130.883 60.7428 119.097 76.2562C107.312 91.7697 125.466 101.18 125.466 101.18L150.424 114.678" stroke="#F0EEF6" stroke-width="6"/>
</svg>
